<svg viewBox="0 0 480 320" fill="none" xmlns="http://www.w3.org/2000/svg">
  <rect width="480" height="320" rx="32" fill="#0d1b2a"/>
  <rect x="36" y="60" width="320" height="180" rx="16" fill="#11235a" stroke="#2563eb" stroke-width="2"/>
  <rect x="56" y="80" width="120" height="32" rx="8" fill="#2563eb" opacity="0.7"/>
  <rect x="188" y="80" width="120" height="32" rx="8" fill="#1e40af" opacity="0.7"/>
  <rect x="56" y="128" width="252" height="20" rx="6" fill="#2563eb" opacity="0.4"/>
  <!-- Doctor Figure -->
  <ellipse cx="390" cy="210" rx="36" ry="40" fill="#2563eb" />
  <rect x="370" y="210" width="40" height="60" rx="20" fill="#1e40af"/>
  <rect x="382" y="270" width="16" height="22" rx="8" fill="#2563eb"/>
  <!-- AI Brain Icon -->
  <ellipse cx="320" cy="120" rx="18" ry="14" fill="#2563eb" opacity="0.8"/>
  <path d="M320 120 Q328 112 336 120 Q328 128 320 120" stroke="#fff" stroke-width="2" fill="none"/>
  <circle cx="320" cy="120" r="4" fill="#fff"/>
  <!-- Dashboard Chart -->
  <rect x="250" y="160" width="50" height="28" rx="7" fill="#2563eb" opacity="0.8"/>
  <rect x="260" y="168" width="12" height="8" rx="3" fill="#fff" opacity="0.7"/>
  <rect x="276" y="164" width="7" height="12" rx="3" fill="#fff" opacity="0.7"/>
  <rect x="288" y="172" width="8" height="5" rx="2" fill="#fff" opacity="0.7"/>
  <!-- AI Glow -->
  <circle cx="320" cy="120" r="24" fill="#2563eb" opacity="0.15"/>
</svg>
